<svg xmlns="http://www.w3.org/2000/svg" width="1280" height="470" viewBox="0 0 1280 470" fill="none" stroke-linecap="round" stroke-linejoin="round" role="img" aria-labelledby="t d"><title id="t">SIDDHARTHA, an interactive artwork</title><desc id="d">Plate II. The title SIDDHARTHA, drawn measured. Beside it, a side view of the artwork&#x27;s mechanism: five sheets of light at five depths, and rays from one viewpoint, V-star, that pass through the same point on every sheet. From a second, displaced viewpoint the same points no longer line up. The law of the piece: stillness resolves, motion scatters, attention pulls.</desc><style>@keyframes br{0%,100%{opacity:.2}50%{opacity:.85}}.er{animation:br 4.8s ease-in-out infinite both}@media (prefers-reduced-motion:reduce){*{animation:none!important}}</style><defs><path id="g0" d="M0 0L0 -100M0 -100L30 -100A30 28 0 0 1 60 -72A30 28 0 0 1 30 -44L0 -44"/><path id="g1" d="M0 -100L0 0L54 0"/><path id="g2" d="M6 0L6 -9"/><path id="g3" d="M20 0L20 -100M0 -100L40 -100M0 0L40 0"/><path id="g4" d="M57.2 -85.6A30 25 0 0 0 21.4 -98.9A30 25 0 0 0 0.3 -71.4A30 25 0 0 0 30 -50A30 25 0 0 1 59.7 -28.6A30 25 0 0 1 38.6 -1.1A30 25 0 0 1 2.8 -14.4"/><path id="g5" d="M0 0L0 -100L38 -100A44 50 0 0 1 82 -50A44 50 0 0 1 38 0L0 0"/><path id="g6" d="M0 0L0 -100M72 0L72 -100M0 -50L72 -50"/><path id="g7" d="M0 0L42 -100L84 0M13.4 -32L70.6 -32"/><path id="g8" d="M0 0L0 -100M0 -100L36 -100A30 25 0 0 1 66 -75A30 25 0 0 1 36 -50L0 -50M30 -50L72 0"/><path id="g9" d="M0 -100L80 -100M40 -100L40 0"/><path id="g10" d="M0 -50L90 -50"/><path id="g11" d="M0 0L0 -100L70 0L70 -100"/><path id="g12" d="M58 -100L0 -100L0 0L58 0M0 -50L48 -50"/><path id="g13" d="M81.2 -82.1A46 50 0 0 0 14.4 -86.4A46 50 0 0 0 14.4 -13.6A46 50 0 0 0 81.2 -17.9"/><path id="g14" d="M0 -100L40 0L80 -100"/><path id="g15" d="M0 -100L22 0L50 -62L78 0L100 -100"/><path id="g16" d="M46 -100A46 50 0 0 0 6.2 -25A46 50 0 0 0 85.8 -25A46 50 0 0 0 46 -100"/><path id="g17" d="M0 0L0 -100M64 -100L0 -40M18 -58L68 0"/><path id="g18" d="M0 0L0 -100M0 -100L30 -100A28 25 0 0 1 58 -75A28 25 0 0 1 30 -50L0 -50M0 -50L34 -50A28 25 0 0 1 62 -25A28 25 0 0 1 34 0L0 0"/><path id="g19" d="M0 -100L0 -42A36 42 0 0 0 36 0A36 42 0 0 0 72 -42L72 -100"/><path id="g20" d="M0 0L42 -100"/><path id="g21" d="M0 0L0 -100L40 -36L80 -100L80 0"/><clipPath id="m1"><rect x="66" y="146" width="40.8" height="44"/></clipPath><clipPath id="m2"><rect x="105.6" y="146" width="33.2" height="44"/></clipPath><clipPath id="m3"><rect x="136.4" y="146" width="49.2" height="44"/></clipPath><clipPath id="m4"><rect x="185.7" y="146" width="49.2" height="44"/></clipPath><clipPath id="m5"><rect x="235" y="146" width="45.4" height="44"/></clipPath><clipPath id="m6"><rect x="279.8" y="146" width="49.9" height="44"/></clipPath><clipPath id="m7"><rect x="330" y="146" width="45.4" height="44"/></clipPath><clipPath id="m8"><rect x="374.9" y="146" width="48.4" height="44"/></clipPath><clipPath id="m9"><rect x="423.3" y="146" width="45.4" height="44"/></clipPath><clipPath id="m10"><rect x="468.2" y="146" width="49.9" height="44"/></clipPath><path id="g22" d="M6 -6L6 -15M6 -60L6 -69"/><path id="g23" d="M8 -9L4 8"/><path id="g24" d="M6 -50L6 -58"/><path id="g25" d="M50 -100L50 -32A25 32 0 0 1 25 0A25 32 0 0 1 0 -32"/><path id="g26" d="M58 -100L0 -100L0 0M0 -55L48 -55"/><path id="g27" d="M81.2 -82.1A46 50 0 0 0 7.6 -77.5A46 50 0 0 0 32.8 -2.1A46 50 0 0 0 92 -50L50 -50"/><path id="g28" d="M0 -100L36 -50L72 -100M36 -50L36 0"/><path id="g29" d="M20 -62L20 -98M4.4 -71L35.6 -89M4.4 -89L35.6 -71"/></defs><rect width="1280" height="470" fill="#EFEBE3"/><path d="M20 24h14 M24 20v14M1260 24h-14 M1256 20v14M20 446h14 M24 450v-14M1260 446h-14 M1256 450v-14" stroke="#A5A19B" stroke-width="1"/><g transform="translate(72 62) scale(0.11)" stroke="#14110E" stroke-width="10"><use href="#g0" x="0"/><use href="#g1" x="92"/><use href="#g2" x="178"/><use href="#g3" x="304"/><use href="#g3" x="376"/></g><g transform="translate(139.8 62) scale(0.11)" stroke="#514E4A" stroke-width="10"><use href="#g4" x="0"/><use href="#g3" x="92"/><use href="#g5" x="164"/><use href="#g5" x="278"/><use href="#g6" x="392"/><use href="#g7" x="496"/><use href="#g8" x="612"/><use href="#g9" x="716"/><use href="#g6" x="828"/><use href="#g7" x="932"/><use href="#g10" x="1130"/><use href="#g7" x="1334"/><use href="#g11" x="1450"/><use href="#g3" x="1634"/><use href="#g11" x="1706"/><use href="#g9" x="1808"/><use href="#g12" x="1920"/><use href="#g8" x="2010"/><use href="#g7" x="2114"/><use href="#g13" x="2230"/><use href="#g9" x="2344"/><use href="#g3" x="2456"/><use href="#g14" x="2528"/><use href="#g12" x="2640"/><use href="#g7" x="2812"/><use href="#g8" x="2928"/><use href="#g9" x="3032"/><use href="#g15" x="3144"/><use href="#g16" x="3276"/><use href="#g8" x="3400"/><use href="#g17" x="3504"/><use href="#g7" x="3686"/><use href="#g18" x="3802"/><use href="#g16" x="3896"/><use href="#g19" x="4020"/><use href="#g9" x="4124"/><use href="#g7" x="4318"/><use href="#g0" x="4516"/><use href="#g12" x="4608"/><use href="#g8" x="4698"/><use href="#g4" x="4802"/><use href="#g16" x="4894"/><use href="#g11" x="5018"/></g><g transform="translate(998.8 62) scale(0.11)" stroke="#827E78" stroke-width="10"><use href="#g4" x="0"/><use href="#g3" x="92"/><use href="#g5" x="164"/><use href="#g5" x="278"/><use href="#g6" x="392"/><use href="#g19" x="496"/><use href="#g0" x="600"/><use href="#g12" x="692"/><use href="#g8" x="782"/><use href="#g19" x="886"/><use href="#g8" x="990"/><use href="#g3" x="1094"/><use href="#g20" x="1166"/><use href="#g21" x="1240"/><use href="#g3" x="1352"/><use href="#g8" x="1424"/><use href="#g7" x="1528"/><use href="#g13" x="1644"/><use href="#g1" x="1758"/><use href="#g12" x="1844"/></g><path d="M72 84H1208" stroke="#C3BFB8" stroke-width="1"/><g clip-path="url(#m1)"><path d="M100 159.5L96.7 154.5A11.4 9.5 0 0 0 83.1 149.4A11.4 9.5 0 0 0 75.1 159.9A11.4 9.5 0 0 0 86.4 168A11.4 9.5 0 0 1 97.7 176.1A11.4 9.5 0 0 1 89.7 186.6A11.4 9.5 0 0 1 76.1 181.5L72.8 176.5" stroke="#14110E" stroke-width="6" stroke-linecap="butt" stroke-linejoin="miter"/></g><g clip-path="url(#m2)"><path d="M122.2 187L122.2 149M114.6 149L129.8 149M114.6 187L129.8 187" stroke="#14110E" stroke-width="6" stroke-linecap="butt" stroke-linejoin="miter"/></g><g clip-path="url(#m3)"><path d="M145.4 187L145.4 149L159.8 149A16.7 19 0 0 1 176.6 168A16.7 19 0 0 1 159.8 187L145.4 187" stroke="#14110E" stroke-width="6" stroke-linecap="butt" stroke-linejoin="miter"/></g><g clip-path="url(#m4)"><path d="M194.7 187L194.7 149L209.1 149A16.7 19 0 0 1 225.8 168A16.7 19 0 0 1 209.1 187L194.7 187" stroke="#14110E" stroke-width="6" stroke-linecap="butt" stroke-linejoin="miter"/></g><g clip-path="url(#m5)"><path d="M244 193L244 187L244 149L244 143M271.3 193L271.3 187L271.3 149L271.3 143M244 168L271.3 168" stroke="#14110E" stroke-width="6" stroke-linecap="butt" stroke-linejoin="miter"/></g><g clip-path="url(#m6)"><path d="M286.5 192.5L288.8 187L304.8 149L320.8 187L323.1 192.5M293.9 174.8L315.7 174.8" stroke="#14110E" stroke-width="6" stroke-linecap="butt" stroke-linejoin="miter"/></g><g clip-path="url(#m7)"><path d="M339 193L339 187L339 149M339 149L352.7 149A11.4 9.5 0 0 1 364.1 158.5A11.4 9.5 0 0 1 352.7 168L339 168M350.4 168L366.4 187L370.2 191.6" stroke="#14110E" stroke-width="6" stroke-linecap="butt" stroke-linejoin="miter"/></g><g clip-path="url(#m8)"><path d="M383.9 149L414.3 149M399.1 149L399.1 187L399.1 193" stroke="#14110E" stroke-width="6" stroke-linecap="butt" stroke-linejoin="miter"/></g><g clip-path="url(#m9)"><path d="M432.3 193L432.3 187L432.3 149L432.3 143M459.6 193L459.6 187L459.6 149L459.6 143M432.3 168L459.6 168" stroke="#14110E" stroke-width="6" stroke-linecap="butt" stroke-linejoin="miter"/></g><g clip-path="url(#m10)"><path d="M474.8 192.5L477.2 187L493.1 149L509.1 187L511.4 192.5M482.3 174.8L504 174.8" stroke="#14110E" stroke-width="6" stroke-linecap="butt" stroke-linejoin="miter"/></g><g transform="translate(72 226) scale(0.09)" stroke="#827E78" stroke-width="11.67"><use href="#g21" x="0"/><use href="#g12" x="112"/><use href="#g7" x="202"/><use href="#g4" x="318"/><use href="#g19" x="410"/><use href="#g8" x="514"/><use href="#g12" x="618"/><use href="#g5" x="708"/><use href="#g22" x="822"/><use href="#g0" x="948"/><use href="#g19" x="1040"/><use href="#g18" x="1144"/><use href="#g1" x="1238"/><use href="#g3" x="1324"/><use href="#g13" x="1396"/><use href="#g23" x="1510"/><use href="#g7" x="1636"/><use href="#g11" x="1752"/><use href="#g5" x="1854"/><use href="#g3" x="2050"/><use href="#g9" x="2122"/><use href="#g8" x="2316"/><use href="#g19" x="2420"/><use href="#g11" x="2524"/><use href="#g4" x="2626"/></g><g transform="translate(72 270) scale(0.11)" stroke="#514E4A" stroke-width="10"><use href="#g6" x="0"/><use href="#g9" x="104"/><use href="#g21" x="216"/><use href="#g1" x="328"/><use href="#g24" x="496"/><use href="#g13" x="622"/><use href="#g4" x="736"/><use href="#g4" x="828"/><use href="#g24" x="1002"/><use href="#g25" x="1128"/><use href="#g7" x="1210"/><use href="#g14" x="1326"/><use href="#g7" x="1438"/><use href="#g4" x="1554"/><use href="#g13" x="1646"/><use href="#g8" x="1760"/><use href="#g3" x="1864"/><use href="#g0" x="1936"/><use href="#g9" x="2028"/></g><g transform="translate(72 292) scale(0.11)" stroke="#827E78" stroke-width="10"><use href="#g11" x="0"/><use href="#g16" x="102"/><use href="#g26" x="308"/><use href="#g8" x="398"/><use href="#g7" x="502"/><use href="#g21" x="618"/><use href="#g12" x="730"/><use href="#g15" x="820"/><use href="#g16" x="952"/><use href="#g8" x="1076"/><use href="#g17" x="1180"/><use href="#g24" x="1362"/><use href="#g11" x="1488"/><use href="#g16" x="1590"/><use href="#g18" x="1796"/><use href="#g19" x="1890"/><use href="#g3" x="1994"/><use href="#g1" x="2066"/><use href="#g5" x="2152"/><use href="#g4" x="2348"/><use href="#g9" x="2440"/><use href="#g12" x="2552"/><use href="#g0" x="2642"/><use href="#g24" x="2816"/><use href="#g11" x="2942"/><use href="#g16" x="3044"/><use href="#g26" x="3250"/><use href="#g16" x="3340"/><use href="#g11" x="3464"/><use href="#g9" x="3566"/><use href="#g26" x="3760"/><use href="#g3" x="3850"/><use href="#g1" x="3922"/><use href="#g12" x="4008"/><use href="#g4" x="4098"/></g><g transform="translate(72 350) scale(0.15)" stroke="#14110E" stroke-width="10.67"><use href="#g4" x="0"/><use href="#g9" x="92"/><use href="#g3" x="204"/><use href="#g1" x="276"/><use href="#g1" x="362"/><use href="#g11" x="448"/><use href="#g12" x="550"/><use href="#g4" x="640"/><use href="#g4" x="732"/><use href="#g8" x="906"/><use href="#g12" x="1010"/><use href="#g4" x="1100"/><use href="#g16" x="1192"/><use href="#g1" x="1316"/><use href="#g14" x="1402"/><use href="#g12" x="1514"/><use href="#g4" x="1604"/><use href="#g2" x="1696"/></g><g transform="translate(72 380) scale(0.15)" stroke="#514E4A" stroke-width="10.67"><use href="#g21" x="0"/><use href="#g16" x="112"/><use href="#g9" x="236"/><use href="#g3" x="348"/><use href="#g16" x="420"/><use href="#g11" x="544"/><use href="#g4" x="728"/><use href="#g13" x="820"/><use href="#g7" x="934"/><use href="#g9" x="1050"/><use href="#g9" x="1162"/><use href="#g12" x="1274"/><use href="#g8" x="1364"/><use href="#g4" x="1468"/><use href="#g2" x="1560"/></g><g transform="translate(72 410) scale(0.15)" stroke="#514E4A" stroke-width="10.67"><use href="#g7" x="0"/><use href="#g9" x="116"/><use href="#g9" x="228"/><use href="#g12" x="340"/><use href="#g11" x="430"/><use href="#g9" x="532"/><use href="#g3" x="644"/><use href="#g16" x="716"/><use href="#g11" x="840"/><use href="#g0" x="1024"/><use href="#g19" x="1116"/><use href="#g1" x="1220"/><use href="#g1" x="1306"/><use href="#g4" x="1392"/><use href="#g2" x="1484"/></g><g transform="translate(72 432) scale(0.09)" stroke="#827E78" stroke-width="11.67"><use href="#g9" x="0"/><use href="#g6" x="112"/><use href="#g12" x="216"/><use href="#g16" x="388"/><use href="#g11" x="512"/><use href="#g12" x="614"/><use href="#g1" x="786"/><use href="#g7" x="872"/><use href="#g15" x="988"/><use href="#g16" x="1202"/><use href="#g26" x="1326"/><use href="#g3" x="1498"/><use href="#g9" x="1570"/><use href="#g4" x="1682"/><use href="#g15" x="1856"/><use href="#g16" x="1988"/><use href="#g8" x="2112"/><use href="#g1" x="2216"/><use href="#g5" x="2302"/></g><path d="M660 292L1150 177.3" stroke="#A5A19B" stroke-width="0.9"/><path d="M660 292L1150 221.9" stroke="#A5A19B" stroke-width="0.9"/><path d="M660 292L1150 266.5" stroke="#A5A19B" stroke-width="0.9"/><path d="M660 292L1150 307.3" stroke="#A5A19B" stroke-width="0.9"/><path d="M660 292L1150 348.1" stroke="#A5A19B" stroke-width="0.9"/><path d="M660 292L1150 393.9" stroke="#A5A19B" stroke-width="0.9"/><path d="M820 242.4V341.6" stroke="#514E4A" stroke-width="1.2"/><path d="M824 254.6h-8M824 269.1h-8M824 283.7h-8M824 297h-8M824 310.3h-8M824 325.3h-8" stroke="#14110E" stroke-width="2.2"/><g transform="translate(799.8 232.4) scale(0.08)" stroke="#827E78" stroke-width="13.12"><use href="#g9" x="0"/><use href="#g8" x="112"/><use href="#g7" x="216"/><use href="#g13" x="332"/><use href="#g12" x="446"/></g><path d="M902 221.1V362.9" stroke="#827E78" stroke-width="1.2"/><path d="M906 235.4h-8M906 257.4h-8M906 279.4h-8M906 299.6h-8M906 319.7h-8M906 342.3h-8" stroke="#14110E" stroke-width="2.2"/><g transform="translate(885.2 211.1) scale(0.08)" stroke="#827E78" stroke-width="13.12"><use href="#g26" x="0"/><use href="#g3" x="90"/><use href="#g12" x="162"/><use href="#g1" x="252"/><use href="#g5" x="338"/></g><path d="M984 199.8V384.2" stroke="#827E78" stroke-width="1.2"/><path d="M988 216.2h-8M988 245.7h-8M988 275.2h-8M988 302.1h-8M988 329.1h-8M988 359.4h-8" stroke="#14110E" stroke-width="2.2"/><g transform="translate(957.2 189.8) scale(0.08)" stroke="#827E78" stroke-width="13.12"><use href="#g1" x="0"/><use href="#g7" x="86"/><use href="#g9" x="202"/><use href="#g9" x="314"/><use href="#g3" x="426"/><use href="#g13" x="498"/><use href="#g12" x="612"/></g><path d="M1066 178.4V405.6" stroke="#827E78" stroke-width="1.2"/><path d="M1070 197h-8M1070 233.9h-8M1070 270.9h-8M1070 304.7h-8M1070 338.4h-8M1070 376.4h-8" stroke="#14110E" stroke-width="2.2"/><g transform="translate(1043.5 168.4) scale(0.08)" stroke="#827E78" stroke-width="13.12"><use href="#g5" x="0"/><use href="#g12" x="114"/><use href="#g4" x="204"/><use href="#g3" x="296"/><use href="#g27" x="368"/><use href="#g11" x="492"/></g><path d="M1150 156.6V427.4" stroke="#827E78" stroke-width="1.2"/><path d="M1154 177.3h-8M1154 221.9h-8M1154 266.5h-8M1154 307.3h-8M1154 348.1h-8M1154 393.9h-8" stroke="#14110E" stroke-width="2.2"/><g transform="translate(1111.2 146.6) scale(0.08)" stroke="#827E78" stroke-width="13.12"><use href="#g3" x="0"/><use href="#g11" x="72"/><use href="#g4" x="174"/><use href="#g9" x="266"/><use href="#g8" x="378"/><use href="#g19" x="482"/><use href="#g21" x="586"/><use href="#g12" x="698"/><use href="#g11" x="788"/><use href="#g9" x="890"/></g><path d="M664 322L1164 284.5" stroke="#514E4A" stroke-width="1" stroke-dasharray="3 4"/><circle cx="902" cy="319.7" r="5.5" stroke="#514E4A"/><circle cx="984" cy="329.1" r="5.5" stroke="#514E4A"/><circle cx="1066" cy="338.4" r="5.5" stroke="#514E4A"/><circle cx="1150" cy="348.1" r="5.5" stroke="#514E4A"/><circle cx="664" cy="322" r="3.5" stroke="#514E4A"/><g transform="translate(670 352) scale(0.09)" stroke="#514E4A" stroke-width="11.67"><use href="#g21" x="0"/><use href="#g16" x="112"/><use href="#g14" x="236"/><use href="#g12" x="348"/><use href="#g22" x="438"/><use href="#g9" x="564"/><use href="#g6" x="676"/><use href="#g12" x="780"/><use href="#g28" x="870"/><use href="#g4" x="1056"/><use href="#g1" x="1148"/><use href="#g3" x="1234"/><use href="#g5" x="1306"/><use href="#g12" x="1420"/><use href="#g7" x="1592"/><use href="#g0" x="1708"/><use href="#g7" x="1800"/><use href="#g8" x="1916"/><use href="#g9" x="2020"/></g><circle cx="660" cy="292" r="6" fill="#E0461A"/><circle class="er" cx="660" cy="292" r="14" stroke="#E0461A"/><g transform="translate(617.8 297) scale(0.12)" stroke="#14110E" stroke-width="10"><use href="#g14" x="0"/><use href="#g29" x="112"/></g><g transform="translate(496.7 326) scale(0.09)" stroke="#514E4A" stroke-width="11.67"><use href="#g4" x="0"/><use href="#g9" x="92"/><use href="#g7" x="204"/><use href="#g11" x="320"/><use href="#g5" x="422"/><use href="#g4" x="618"/><use href="#g9" x="710"/><use href="#g3" x="822"/><use href="#g1" x="894"/><use href="#g1" x="980"/><use href="#g6" x="1148"/><use href="#g12" x="1252"/><use href="#g8" x="1342"/><use href="#g12" x="1446"/><use href="#g22" x="1536"/></g><g transform="translate(442.1 344) scale(0.09)" stroke="#514E4A" stroke-width="11.67"><use href="#g9" x="0"/><use href="#g6" x="112"/><use href="#g12" x="216"/><use href="#g28" x="306"/><use href="#g7" x="492"/><use href="#g5" x="608"/><use href="#g5" x="722"/><use href="#g19" x="918"/><use href="#g0" x="1022"/><use href="#g9" x="1196"/><use href="#g16" x="1308"/><use href="#g7" x="1514"/><use href="#g15" x="1712"/><use href="#g16" x="1844"/><use href="#g8" x="1968"/><use href="#g5" x="2072"/></g><g transform="translate(793 112) scale(0.08)" stroke="#827E78" stroke-width="13.12"><use href="#g11" x="0"/><use href="#g12" x="102"/><use href="#g7" x="192"/><use href="#g8" x="308"/><use href="#g12" x="412"/><use href="#g4" x="502"/><use href="#g9" x="594"/></g><g transform="translate(1118.5 112) scale(0.08)" stroke="#827E78" stroke-width="13.12"><use href="#g26" x="0"/><use href="#g7" x="90"/><use href="#g8" x="206"/><use href="#g9" x="310"/><use href="#g6" x="422"/><use href="#g12" x="526"/><use href="#g4" x="616"/><use href="#g9" x="708"/></g><path d="M854 108L1104 108" stroke="#A5A19B" stroke-width="1"/><path d="M1099.5 110.2L1104 108L1099.5 105.8" stroke="#A5A19B" stroke-width="1"/></svg>