<svg xmlns="http://www.w3.org/2000/svg" width="1280" height="358" viewBox="0 0 1280 358" fill="none" role="img" aria-label="Currently building HELIOS"><title>Currently building HELIOS</title><desc>HELIOS — solar energy intelligence platform in development.</desc><style>@keyframes fl{0%,22%,100%{opacity:.45}8%{opacity:1}}@keyframes pl{0%,100%{opacity:1}50%{opacity:.25}}.fl{opacity:.45;animation:fl 7s ease-in-out infinite}.pl{animation:pl 2.4s ease-in-out infinite}.f0{animation-delay:0s}.f1{animation-delay:.55s}.f2{animation-delay:1.1s}.f3{animation-delay:1.65s}.f4{animation-delay:2.2s}@media(prefers-reduced-motion:reduce){*{animation:none!important}.rv{opacity:1!important}.dr{stroke-dashoffset:0!important}.fl{opacity:1!important}}</style><defs><path id="m60" d="M304 16Q217 16 157 -29Q97 -74 66 -157Q34 -240 34 -354Q34 -469 66 -552Q97 -635 157 -680Q217 -726 304 -726Q404 -726 471 -660Q538 -594 557 -473L430 -467Q417 -539 384 -576Q350 -614 304 -614Q257 -614 226 -584Q194 -553 178 -495Q162 -437 162 -354Q162 -272 178 -214Q194 -156 226 -126Q257 -96 304 -96Q352 -96 387 -136Q422 -177 434 -255L561 -250Q543 -124 476 -54Q408 16 304 16Z"/><path id="m61" d="M300 16Q185 16 120 -52Q56 -121 56 -246V-710H180V-238Q180 -170 210 -133Q241 -96 300 -96Q359 -96 390 -133Q420 -170 420 -238V-710H544V-246Q544 -121 480 -52Q415 16 300 16Z"/><path id="m62" d="M64 0V-710H289Q403 -710 468 -653Q533 -596 533 -497Q533 -446 510 -407Q488 -368 451 -346Q414 -323 370 -320L366 -333Q443 -330 481 -300Q519 -269 525 -200L542 0H418L403 -171Q400 -209 388 -230Q377 -251 354 -259Q330 -267 289 -267H188V0ZM188 -381H286Q344 -381 374 -409Q405 -437 405 -489Q405 -541 374 -568Q344 -596 286 -596H188Z"/><path id="m63" d="M86 0V-710H526V-596H210V-411H514V-301H210V-114H534V0Z"/><path id="m64" d="M66 0V-710H199L435 -153L414 -148V-710H534V0H401L165 -557L186 -562V0Z"/><path id="m65" d="M238 0V-596H40V-710H560V-596H362V0Z"/><path id="m66" d="M96 0V-710H220V-40L135 -114H544V0Z"/><path id="m67" d="M239 0V-294L34 -710H168L300 -421L432 -710H566L362 -294V0Z"/><path id="m68" d="M76 0V-710H288Q406 -710 468 -660Q530 -611 530 -518Q530 -475 510 -440Q491 -406 452 -386Q414 -365 358 -362V-369Q426 -367 470 -345Q515 -323 538 -284Q560 -246 560 -196Q560 -101 495 -50Q430 0 311 0ZM199 -112H311Q373 -113 402 -138Q432 -162 432 -206Q432 -253 402 -279Q371 -305 311 -305H199ZM199 -415H288Q347 -415 374 -439Q402 -463 402 -507Q402 -551 374 -574Q347 -598 288 -598H199Z"/><path id="m69" d="M76 0V-114H238V-596H76V-710H524V-596H362V-114H524V0Z"/><path id="m610" d="M76 0V-710H253Q350 -710 420 -668Q491 -627 528 -548Q566 -468 566 -354Q566 -240 528 -161Q491 -82 420 -41Q350 0 253 0ZM199 -114H253Q342 -114 390 -174Q438 -234 438 -354Q438 -475 390 -536Q342 -596 253 -596H199Z"/><path id="m611" d="M300 16Q222 16 162 -26Q102 -69 68 -152Q34 -235 34 -354Q34 -469 66 -552Q98 -635 158 -680Q219 -726 303 -726Q371 -726 423 -697Q475 -668 510 -614Q544 -559 559 -484L431 -476Q418 -541 386 -577Q354 -613 304 -613Q259 -613 227 -583Q195 -553 178 -495Q162 -437 162 -354Q162 -272 180 -214Q197 -157 230 -127Q263 -97 311 -97Q351 -97 380 -118Q409 -138 426 -176Q442 -214 444 -265H302V-366H558V0H468L462 -158L492 -167Q483 -117 460 -75Q436 -33 396 -8Q357 16 300 16Z"/><path id="m512" d="M48 0Q48 -79 71 -141Q94 -203 152 -258Q211 -312 315 -367Q360 -390 388 -411Q416 -432 429 -456Q442 -480 442 -514Q442 -549 428 -574Q414 -599 386 -614Q358 -628 316 -628Q248 -628 210 -592Q171 -556 161 -489L52 -496Q63 -601 131 -664Q199 -726 316 -726Q392 -726 444 -700Q497 -674 524 -627Q551 -580 551 -518Q551 -463 533 -423Q515 -383 473 -349Q431 -315 358 -276Q297 -243 256 -212Q216 -180 196 -152Q175 -123 173 -99H552V0Z"/><path id="m513" d="M124 -106 396 -609 476 -604 204 -101ZM300 16Q222 16 165 -29Q108 -74 78 -157Q48 -240 48 -354Q48 -469 78 -552Q108 -635 165 -680Q222 -726 300 -726Q379 -726 436 -680Q492 -635 522 -552Q552 -469 552 -354Q552 -240 522 -157Q492 -74 436 -29Q379 16 300 16ZM300 -82Q345 -82 376 -114Q408 -147 426 -208Q443 -269 443 -354Q443 -441 426 -502Q408 -563 376 -596Q345 -628 300 -628Q256 -628 224 -596Q192 -563 174 -502Q157 -441 157 -354Q157 -269 174 -208Q192 -147 224 -114Q256 -82 300 -82Z"/><path id="m514" d="M302 16Q220 16 162 -21Q105 -58 76 -130Q46 -201 46 -302Q46 -390 61 -467Q76 -544 109 -602Q142 -660 196 -693Q250 -726 329 -726Q395 -726 440 -704Q484 -683 512 -644Q539 -605 553 -555L445 -546Q435 -583 408 -606Q382 -628 329 -628Q275 -628 236 -597Q198 -566 176 -503Q154 -440 152 -342L126 -346Q137 -381 164 -411Q190 -441 230 -460Q270 -478 322 -478Q393 -478 444 -448Q496 -419 525 -364Q554 -310 554 -238Q554 -159 522 -102Q490 -46 434 -15Q378 16 302 16ZM302 -83Q368 -83 406 -123Q445 -163 445 -236Q445 -304 409 -344Q373 -383 310 -383Q265 -383 230 -365Q196 -347 176 -314Q157 -281 157 -236Q157 -192 174 -157Q192 -122 225 -102Q258 -83 302 -83Z"/><path id="a15" d="M38 0V-859H209V-552H290V-859H461V0H290V-390H209V0Z"/><path id="a16" d="M38 0V-859H382V-693H213V-526H375V-364H213V-167H393V0Z"/><path id="a17" d="M38 0V-859H210V-146H387V0Z"/><path id="a18" d="M30 0V-859H196V0Z"/><path id="a19" d="M243 8Q140 8 86 -54Q31 -117 31 -234V-643Q31 -753 85 -810Q139 -867 243 -867Q347 -867 401 -810Q455 -753 455 -643V-234Q455 -117 401 -54Q346 8 243 8ZM245 -150Q284 -150 284 -226V-646Q284 -709 246 -709Q203 -709 203 -644V-225Q203 -185 212 -168Q222 -150 245 -150Z"/><path id="a20" d="M242 8Q125 8 73 -51Q21 -109 21 -237V-321H190V-214Q190 -184 199 -167Q208 -150 231 -150Q254 -150 263 -164Q272 -178 272 -209Q272 -249 265 -275Q257 -302 238 -326Q218 -350 184 -382L107 -456Q21 -537 21 -642Q21 -752 72 -810Q123 -867 219 -867Q337 -867 387 -804Q437 -741 437 -613H262V-672Q262 -689 252 -699Q242 -709 225 -709Q204 -709 195 -698Q185 -686 185 -668Q185 -650 195 -629Q205 -608 233 -581L333 -485Q362 -457 387 -426Q412 -394 427 -352Q442 -311 442 -250Q442 -129 398 -61Q353 8 242 8Z"/><path id="s421" d="M233 0V-626H12V-710H540V-626H319V0Z"/><path id="s422" d="M186 0 22 -530H114L238 -88L364 -530H454L580 -88L705 -530H797L633 0H527L409 -403L291 0Z"/><path id="s423" d="M287 12Q214 12 159 -22Q104 -56 74 -118Q44 -181 44 -265Q44 -350 74 -412Q104 -474 159 -508Q214 -542 287 -542Q360 -542 414 -508Q469 -474 499 -412Q529 -350 529 -265Q529 -181 499 -118Q469 -56 414 -22Q360 12 287 12ZM287 -68Q360 -68 400 -120Q441 -173 441 -265Q441 -357 400 -410Q360 -462 287 -462Q214 -462 173 -410Q132 -357 132 -265Q132 -173 173 -120Q214 -68 287 -68Z"/><path id="s424" d="M80 0V-530H164V0ZM78 -613V-711H166V-613Z"/><path id="s425" d="M80 0V-530H157L160 -395L150 -404Q160 -451 185 -482Q210 -512 246 -527Q281 -542 322 -542Q383 -542 422 -515Q462 -488 482 -442Q501 -397 501 -341V0H417V-317Q417 -366 406 -400Q394 -433 369 -450Q344 -468 304 -468Q243 -468 204 -430Q164 -391 164 -317V0Z"/><path id="s426" d="M274 0Q202 0 168 -33Q133 -66 133 -136V-654H217V-138Q217 -102 233 -88Q249 -74 282 -74H358V0ZM55 -456V-530H358V-456Z"/><path id="s427" d="M287 12Q212 12 158 -22Q103 -56 74 -118Q44 -181 44 -265Q44 -349 74 -411Q103 -473 156 -508Q210 -542 283 -542Q352 -542 405 -510Q458 -477 488 -415Q517 -353 517 -264V-239H132Q137 -154 178 -111Q218 -68 287 -68Q339 -68 372 -92Q406 -117 419 -157L509 -150Q488 -79 430 -34Q371 12 287 12ZM132 -313H425Q419 -390 380 -426Q342 -462 283 -462Q222 -462 182 -424Q143 -387 132 -313Z"/><path id="s428" d="M80 0V-530H154L158 -396L150 -399Q160 -467 194 -498Q227 -530 283 -530H335V-450H284Q244 -450 218 -436Q191 -421 178 -392Q164 -364 164 -320V0Z"/><path id="s429" d="M132 0V-578Q132 -637 166 -674Q200 -710 272 -710H356V-636H278Q247 -636 232 -619Q216 -602 216 -572V0ZM60 -456V-530H349V-456Z"/><path id="s430" d="M223 12Q141 12 92 -26Q44 -64 44 -132Q44 -200 84 -239Q124 -278 211 -294L399 -329Q399 -396 368 -429Q336 -462 273 -462Q218 -462 186 -438Q154 -413 142 -367L53 -374Q68 -449 126 -496Q183 -542 273 -542Q375 -542 429 -484Q483 -427 483 -326V-107Q483 -89 490 -82Q496 -74 511 -74H532V0Q528 1 519 2Q510 2 500 2Q464 2 442 -10Q419 -21 409 -46Q399 -70 399 -110L409 -108Q402 -74 375 -46Q348 -19 308 -4Q268 12 223 12ZM231 -62Q284 -62 322 -82Q359 -103 379 -138Q399 -174 399 -218V-256L227 -224Q173 -214 152 -194Q132 -173 132 -140Q132 -103 158 -82Q185 -62 231 -62Z"/><path id="s431" d="M287 12Q213 12 158 -22Q104 -56 74 -118Q44 -181 44 -265Q44 -349 74 -411Q104 -473 158 -508Q213 -542 287 -542Q348 -542 396 -520Q443 -499 473 -458Q503 -417 512 -358L424 -352Q415 -405 378 -434Q341 -462 287 -462Q214 -462 173 -410Q132 -357 132 -265Q132 -173 173 -120Q214 -68 287 -68Q341 -68 378 -98Q415 -128 424 -188L512 -182Q503 -123 473 -80Q443 -36 396 -12Q348 12 287 12Z"/><path id="s432" d="M273 12Q200 12 150 -11Q101 -34 74 -74Q48 -115 44 -167L132 -173Q140 -125 172 -96Q203 -68 273 -68Q327 -68 356 -86Q386 -103 386 -142Q386 -163 376 -177Q367 -191 339 -202Q311 -212 257 -222Q183 -236 141 -257Q99 -278 82 -308Q65 -338 65 -380Q65 -451 118 -496Q170 -542 266 -542Q336 -542 380 -518Q425 -493 448 -454Q471 -415 476 -372L388 -366Q386 -391 373 -413Q360 -435 334 -448Q308 -462 264 -462Q207 -462 180 -440Q153 -418 153 -384Q153 -358 164 -342Q174 -325 200 -314Q227 -304 273 -296Q351 -283 395 -263Q439 -243 456 -214Q474 -184 474 -142Q474 -69 418 -28Q361 12 273 12Z"/><path id="s433" d="M215 0 22 -530H114L268 -86L422 -530H514L321 0Z"/><path id="s434" d="M80 150V-530H158L160 -416L148 -422Q168 -481 214 -512Q261 -542 322 -542Q401 -542 452 -503Q502 -464 526 -401Q551 -338 551 -265Q551 -192 526 -129Q502 -66 452 -27Q401 12 322 12Q281 12 246 -2Q210 -16 186 -41Q161 -66 152 -100L164 -114V150ZM314 -68Q383 -68 423 -120Q463 -172 463 -265Q463 -358 423 -410Q383 -462 314 -462Q268 -462 234 -440Q201 -418 182 -374Q164 -330 164 -265Q164 -200 182 -156Q200 -112 234 -90Q268 -68 314 -68Z"/><path id="s435" d="M80 0V-710H164V-413L154 -415Q164 -459 188 -487Q212 -515 247 -528Q282 -542 324 -542Q381 -542 420 -516Q460 -491 480 -446Q501 -400 501 -341V0H417V-317Q417 -394 390 -431Q362 -468 306 -468Q242 -468 203 -429Q164 -390 164 -316V0Z"/><path id="s436" d="M103 150V76H164Q192 76 206 68Q219 59 226 40L245 -10H216L22 -530H114L272 -88L423 -530H515L300 67Q285 110 255 130Q225 150 172 150Z"/><path id="s437" d="M44 -252V-331H375V-252Z"/><path id="s438" d="M268 12Q199 12 148 -22Q98 -56 71 -118Q44 -180 44 -265Q44 -350 71 -412Q98 -474 148 -508Q199 -542 268 -542Q321 -542 365 -520Q409 -497 431 -456V-710H515V0H439L436 -80Q414 -37 369 -12Q324 12 268 12ZM285 -68Q332 -68 364 -92Q397 -116 414 -160Q431 -205 431 -265Q431 -327 414 -371Q397 -415 364 -438Q332 -462 285 -462Q215 -462 174 -410Q132 -357 132 -265Q132 -174 174 -121Q215 -68 285 -68Z"/><path id="s439" d="M92 0V-710H212L439 -94L665 -710H785V0H699V-550L496 0H381L178 -550V0Z"/><path id="s440" d="M92 0V-710H178V-40L135 -84H533V0Z"/><path id="s441" d="M281 162Q224 162 178 143Q132 124 101 89Q70 54 59 8L147 2Q159 39 190 60Q220 82 281 82Q353 82 392 53Q430 24 430 -34V-120Q411 -78 369 -53Q327 -28 275 -28Q208 -28 156 -61Q103 -94 74 -152Q44 -210 44 -285Q44 -361 73 -418Q102 -476 154 -509Q205 -542 271 -542Q327 -542 372 -516Q416 -490 434 -446V-530H514V-36Q514 26 486 70Q458 115 406 138Q354 162 281 162ZM279 -108Q347 -108 388 -156Q429 -203 430 -285Q431 -340 412 -380Q394 -419 360 -440Q325 -462 279 -462Q209 -462 170 -414Q132 -367 132 -285Q132 -203 172 -156Q211 -108 279 -108Z"/><path id="s442" d="M92 0V-113H205V0ZM92 -393V-506H205V-393Z"/><path id="s443" d="M184 0Q138 0 109 -24Q80 -48 80 -100V-710H164V-107Q164 -91 172 -82Q181 -74 197 -74H243V0Z"/><path id="s444" d="M254 12Q175 12 128 -42Q80 -95 80 -189V-530H164V-212Q164 -135 192 -98Q219 -62 276 -62Q339 -62 375 -102Q411 -143 411 -214V-530H495V0H415V-131L428 -124Q412 -59 367 -24Q322 12 254 12Z"/><path id="s445" d="M47 156 95 0H44V-113H157V-14L97 156Z"/><path id="s446" d="M44 0V-113H157V0Z"/><path id="m547" d="M309 16Q232 16 174 -15Q117 -46 83 -102Q49 -157 43 -231L151 -238Q158 -187 179 -152Q200 -117 234 -100Q268 -82 313 -82Q357 -82 387 -94Q417 -105 433 -127Q449 -149 449 -181Q449 -213 434 -236Q419 -259 380 -278Q341 -298 266 -319Q193 -339 147 -364Q101 -390 80 -428Q59 -465 59 -520Q59 -581 88 -628Q116 -674 170 -700Q223 -726 298 -726Q372 -726 424 -697Q477 -668 508 -616Q538 -565 545 -496L437 -490Q432 -531 414 -562Q397 -593 367 -610Q337 -628 295 -628Q236 -628 202 -600Q167 -572 167 -525Q167 -495 181 -474Q195 -454 230 -438Q265 -423 328 -405Q413 -382 463 -352Q513 -321 535 -280Q557 -239 557 -181Q557 -123 526 -78Q495 -33 440 -8Q384 16 309 16Z"/><path id="m548" d="M248 0V-292L37 -710H153L300 -400L447 -710H563L353 -292V0Z"/><path id="m549" d="M248 0V-611H40V-710H560V-611H352V0Z"/><path id="m550" d="M88 0V-710H524V-611H193V-404H512V-308H193V-99H532V0Z"/><path id="m551" d="M260 -86 138 -594 149 -595V0H48V-710H188L320 -171H280L412 -710H552V0H451V-595L462 -594L340 -86Z"/><path id="m552" d="M98 0V-710H542V-613H157L203 -659V-395H524V-299H203V0Z"/><path id="m553" d="M98 0V-710H203V-40L139 -99H542V0Z"/><path id="m554" d="M300 16Q215 16 156 -27Q98 -70 67 -153Q36 -236 36 -354Q36 -474 67 -557Q98 -640 156 -683Q215 -726 300 -726Q385 -726 444 -683Q503 -640 534 -557Q564 -474 564 -354Q564 -236 534 -153Q503 -70 444 -27Q385 16 300 16ZM300 -82Q350 -82 384 -112Q419 -142 437 -203Q455 -264 455 -354Q455 -444 437 -506Q419 -567 384 -598Q350 -628 300 -628Q250 -628 216 -598Q181 -567 163 -506Q145 -444 145 -354Q145 -264 163 -203Q181 -142 216 -112Q250 -82 300 -82Z"/><path id="m555" d="M104 0 28 -710H133L192 -86H180L254 -630H346L420 -86H408L467 -710H572L496 0H359L288 -520H312L241 0Z"/><path id="m656" d="M21 0 223 -710H377L579 0H452L300 -570L148 0ZM145 -168 179 -279H421L455 -168Z"/><path id="m657" d="M82 0V-710H307Q380 -710 436 -682Q492 -654 523 -604Q554 -554 554 -485Q554 -417 523 -367Q492 -317 436 -290Q380 -262 307 -262H206V0ZM206 -375H294Q361 -375 394 -404Q426 -432 426 -485Q426 -540 394 -568Q361 -596 294 -596H206Z"/><path id="m658" d="M52 0V-710H176V-371L126 -414H474L424 -371V-710H548V0H424V-343L474 -300H126L176 -343V0Z"/><path id="m659" d="M307 16Q229 16 172 -15Q114 -46 81 -102Q48 -159 42 -236L168 -243Q174 -194 193 -162Q212 -129 242 -112Q273 -96 313 -96Q351 -96 378 -106Q404 -116 418 -136Q432 -156 432 -185Q432 -214 418 -236Q404 -257 368 -275Q332 -293 265 -312Q193 -331 147 -356Q101 -382 79 -420Q57 -458 57 -515Q57 -579 86 -626Q114 -674 168 -700Q223 -726 299 -726Q374 -726 427 -698Q480 -669 510 -616Q541 -564 548 -492L422 -486Q417 -525 401 -554Q385 -582 358 -598Q332 -614 294 -614Q243 -614 213 -589Q183 -564 183 -522Q183 -494 196 -475Q210 -456 243 -441Q276 -426 336 -410Q418 -387 466 -357Q515 -327 536 -286Q558 -244 558 -187Q558 -126 527 -80Q496 -34 440 -9Q384 16 307 16Z"/><path id="m660" d="M259 -92 147 -558 162 -560V0H46V-710H196L319 -216H281L404 -710H554V0H438V-560L453 -558L341 -92Z"/><path id="m661" d="M300 16Q215 16 156 -27Q96 -70 65 -153Q34 -236 34 -354Q34 -474 65 -557Q96 -640 156 -683Q215 -726 300 -726Q385 -726 444 -683Q504 -640 535 -557Q566 -474 566 -354Q566 -236 535 -153Q504 -70 444 -27Q385 16 300 16ZM300 -96Q345 -96 376 -124Q407 -152 422 -210Q438 -267 438 -354Q438 -441 422 -499Q407 -557 376 -586Q345 -614 300 -614Q255 -614 224 -586Q193 -557 178 -499Q162 -441 162 -354Q162 -267 178 -210Q193 -152 224 -124Q255 -96 300 -96Z"/><path id="m662" d="M233 0 24 -710H155L319 -114H281L445 -710H576L367 0Z"/><path id="m663" d="M166 -203V-384L410 -710H558ZM52 0V-710H176V0ZM424 0 220 -340 304 -421 564 0Z"/><path id="s464" d="M92 0V-710H538V-626H135L178 -670V-344L135 -388H520V-306H135L178 -350V0Z"/><path id="s465" d="M20 0 276 -710H392L648 0H554L483 -202H185L114 0ZM214 -286H454L334 -635Z"/><path id="s466" d="M92 0V-710H347Q466 -710 532 -653Q598 -596 598 -495Q598 -427 568 -378Q538 -328 482 -302Q426 -276 347 -276H178V0ZM178 -360H347Q427 -360 468 -394Q508 -428 508 -495Q508 -560 468 -593Q427 -626 347 -626H178Z"/><path id="s467" d="M92 0V-710H178V0Z"/><path id="s468" d="M44 -248V-361H157V-248Z"/><path id="s469" d="M80 0V-710H164V-245L422 -530H534L325 -305L543 0H441L268 -248L164 -138V0Z"/><path id="s470" d="M92 0V-710H214L565 -86V-710H651V0H523L178 -612V0Z"/><path id="s471" d="M47 0 242 -272 57 -530H155L294 -330L429 -530H529L346 -270L538 0H440L294 -214L147 0Z"/><path id="s472" d="M-5 150V76H38Q64 76 80 64Q96 51 96 18V-530H180V22Q180 92 149 121Q118 150 46 150ZM94 -613V-711H182V-613Z"/><path id="s473" d="M15 0 248 -356 17 -710H119L304 -424L487 -710H587L356 -358L591 0H489L302 -290L115 0Z"/><path id="s474" d="M362 16Q262 16 191 -32Q120 -80 82 -164Q45 -247 45 -354Q45 -461 83 -545Q121 -629 192 -678Q264 -726 364 -726Q449 -726 508 -695Q566 -664 600 -611Q635 -558 648 -492L558 -486Q545 -555 500 -598Q455 -642 364 -642Q283 -642 232 -602Q182 -562 158 -496Q135 -431 135 -354Q135 -273 159 -208Q183 -144 234 -106Q285 -68 364 -68Q427 -68 473 -96Q519 -125 544 -173Q569 -221 570 -277H366V-359H650V0H586L580 -164L592 -150Q580 -102 546 -64Q512 -27 464 -6Q417 16 362 16Z"/><path id="s475" d="M92 0V-710H336Q462 -710 525 -664Q588 -618 588 -519Q588 -473 568 -438Q548 -403 511 -384Q474 -364 423 -364L422 -370Q513 -370 566 -322Q618 -273 618 -195Q618 -98 555 -49Q492 0 376 0ZM178 -84H376Q449 -84 488 -114Q528 -144 528 -200Q528 -256 488 -288Q449 -319 376 -319H178ZM178 -403H336Q414 -403 456 -432Q498 -462 498 -515Q498 -571 458 -598Q417 -626 336 -626H178Z"/><path id="s476" d="M92 0V-710H361Q436 -710 490 -684Q544 -658 574 -610Q603 -561 603 -495Q603 -447 580 -410Q558 -372 523 -350Q488 -328 450 -326L444 -335Q509 -335 546 -305Q584 -275 590 -209L610 0H523L505 -200Q501 -244 474 -265Q446 -286 384 -286H178V0ZM178 -370H372Q437 -370 475 -403Q513 -436 513 -497Q513 -559 474 -592Q435 -626 361 -626H178Z"/><path id="s477" d="M40 -323Q40 -365 46 -396Q53 -427 74 -453Q95 -479 139 -503L191 -532Q210 -543 221 -552Q232 -562 237 -574Q242 -587 242 -606Q242 -632 224 -646Q206 -660 182 -660Q146 -660 128 -642Q110 -625 105 -589L41 -592Q47 -649 82 -684Q118 -718 182 -718Q240 -718 274 -687Q308 -656 308 -606Q308 -558 282 -530Q256 -503 212 -480L171 -458Q141 -442 128 -422Q114 -401 114 -381H306V-323Z"/><path id="s478" d="M331 16Q245 16 182 -29Q119 -74 84 -157Q50 -240 50 -354Q50 -468 84 -552Q119 -635 182 -680Q245 -726 331 -726Q418 -726 481 -680Q544 -635 578 -552Q613 -469 613 -354Q613 -240 578 -157Q544 -74 481 -29Q418 16 331 16ZM331 -68Q423 -68 473 -142Q523 -217 523 -354Q523 -446 500 -510Q478 -575 436 -608Q393 -642 331 -642Q270 -642 228 -608Q185 -575 162 -510Q140 -446 140 -354Q140 -217 190 -142Q240 -68 331 -68Z"/><path id="s479" d="M302 16Q226 16 166 -8Q107 -32 74 -79Q40 -126 40 -195Q40 -272 86 -322Q132 -373 208 -391L210 -371Q149 -388 112 -426Q74 -465 74 -531Q74 -587 102 -631Q131 -675 182 -700Q233 -726 302 -726Q371 -726 422 -700Q474 -675 502 -631Q530 -587 530 -531Q530 -465 493 -426Q456 -388 394 -371L396 -391Q473 -373 518 -322Q564 -272 564 -195Q564 -126 530 -79Q497 -32 438 -8Q379 16 302 16ZM302 -68Q381 -68 428 -100Q474 -133 474 -200Q474 -262 432 -300Q391 -337 302 -337Q214 -337 172 -300Q130 -262 130 -200Q130 -133 176 -100Q223 -68 302 -68ZM302 -417Q368 -417 404 -446Q440 -474 440 -531Q440 -582 405 -612Q370 -642 302 -642Q235 -642 200 -612Q164 -582 164 -531Q164 -474 200 -446Q236 -417 302 -417Z"/><path id="s480" d="M312 16Q237 16 182 -9Q128 -34 96 -79Q65 -124 60 -183L150 -189Q158 -129 202 -98Q245 -68 312 -68Q387 -68 431 -110Q475 -153 475 -228Q475 -278 456 -314Q436 -351 399 -371Q362 -391 310 -391Q261 -391 221 -370Q181 -349 164 -311H72L119 -710H517V-626H198L166 -364L150 -380Q166 -411 192 -432Q219 -452 254 -462Q288 -473 326 -473Q397 -473 451 -442Q505 -410 535 -354Q565 -299 565 -228Q565 -157 533 -102Q501 -46 444 -15Q387 16 312 16Z"/><path id="s481" d="M302 16Q222 16 166 -20Q109 -57 80 -128Q50 -199 50 -300Q50 -388 64 -465Q79 -542 112 -600Q144 -659 198 -692Q251 -726 330 -726Q425 -726 477 -680Q529 -633 550 -558L460 -550Q448 -592 418 -617Q389 -642 330 -642Q242 -642 192 -567Q141 -492 138 -340L120 -344Q131 -380 158 -410Q186 -441 226 -460Q267 -478 318 -478Q388 -478 441 -448Q494 -418 524 -364Q553 -309 553 -236Q553 -158 521 -102Q489 -45 432 -14Q376 16 302 16ZM304 -68Q374 -68 418 -112Q463 -157 463 -236Q463 -285 444 -321Q425 -357 391 -376Q357 -396 312 -396Q264 -396 226 -376Q188 -357 166 -321Q144 -285 144 -236Q144 -187 164 -149Q183 -111 219 -90Q255 -68 304 -68Z"/><path id="m682" d="M96 0V-710H544V-598H168L220 -650V-403H526V-292H220V0Z"/><path id="s483" d="M364 16Q269 16 197 -28Q125 -73 85 -156Q45 -239 45 -354Q45 -469 85 -552Q125 -636 197 -681Q269 -726 364 -726Q493 -726 564 -661Q635 -596 657 -484L566 -478Q551 -554 502 -598Q453 -642 364 -642Q296 -642 244 -608Q193 -573 164 -508Q135 -444 135 -354Q135 -264 164 -200Q193 -136 244 -102Q296 -68 364 -68Q457 -68 508 -116Q559 -165 572 -248L663 -242Q650 -165 612 -107Q574 -49 512 -16Q449 16 364 16Z"/><path id="s484" d="M323 12Q268 12 225 -12Q182 -37 159 -80L156 0H80V-710H164V-456Q184 -489 226 -516Q268 -542 323 -542Q393 -542 444 -508Q495 -474 523 -412Q551 -350 551 -265Q551 -180 523 -118Q495 -56 444 -22Q393 12 323 12ZM318 -68Q385 -68 424 -121Q463 -174 463 -265Q463 -357 424 -410Q385 -462 320 -462Q271 -462 236 -438Q201 -415 182 -371Q164 -327 164 -265Q164 -205 182 -160Q201 -116 236 -92Q270 -68 318 -68Z"/></defs><rect width="1280" height="358" fill="#0A0A0A"/><path d="M21 28H35" stroke="#2C2C2C" stroke-width="1"/><path d="M28 21V35" stroke="#2C2C2C" stroke-width="1"/><path d="M1245 28H1259" stroke="#2C2C2C" stroke-width="1"/><path d="M1252 21V35" stroke="#2C2C2C" stroke-width="1"/><path d="M21 330H35" stroke="#2C2C2C" stroke-width="1"/><path d="M28 323V337" stroke="#2C2C2C" stroke-width="1"/><path d="M1245 330H1259" stroke="#2C2C2C" stroke-width="1"/><path d="M1252 323V337" stroke="#2C2C2C" stroke-width="1"/><circle class="pl" cx="78" cy="41" r="5.5" fill="#1CE0C4"/><g transform="translate(96,46) scale(0.016000)" fill="#FF3D2E"><use href="#m60" x="0"/><use href="#m61" x="740"/><use href="#m62" x="1480"/><use href="#m62" x="2220"/><use href="#m63" x="2960"/><use href="#m64" x="3700"/><use href="#m65" x="4440"/><use href="#m66" x="5180"/><use href="#m67" x="5920"/><use href="#m68" x="7400"/><use href="#m61" x="8140"/><use href="#m69" x="8880"/><use href="#m66" x="9620"/><use href="#m610" x="10360"/><use href="#m69" x="11100"/><use href="#m64" x="11840"/><use href="#m611" x="12580"/></g><g transform="translate(1160.64,46) scale(0.016000)" fill="#6F6F6F"><use href="#m512" x="0"/><use href="#m513" x="740"/><use href="#m512" x="1480"/><use href="#m514" x="2220"/></g><path d="M72 66H1208" stroke="#2C2C2C" stroke-width="1"/><g transform="translate(72,188) scale(0.116000)" fill="#F5F5F5"><use href="#a15" x="0"/><use href="#a16" x="499"/><use href="#a17" x="911"/><use href="#a18" x="1308"/><use href="#a19" x="1535"/><use href="#a20" x="2021"/></g><rect x="72" y="206" width="287.961" height="4" fill="#FF3D2E"/><g transform="translate(72,250) scale(0.021000)" fill="#9A9A9A"><use href="#s421" x="0"/><use href="#s422" x="502"/><use href="#s423" x="1295"/><use href="#s424" x="2118"/><use href="#s425" x="2368"/><use href="#s426" x="2909"/><use href="#s427" x="3285"/><use href="#s428" x="3836"/><use href="#s429" x="4155"/><use href="#s430" x="4520"/><use href="#s431" x="5065"/><use href="#s427" x="5601"/><use href="#s432" x="6152"/><use href="#s423" x="6922"/><use href="#s433" x="7470"/><use href="#s427" x="7980"/><use href="#s428" x="8531"/><use href="#s423" x="9160"/><use href="#s425" x="9723"/><use href="#s427" x="10292"/><use href="#s434" x="11103"/><use href="#s435" x="11688"/><use href="#s436" x="12235"/><use href="#s432" x="12746"/><use href="#s424" x="13256"/><use href="#s431" x="13490"/><use href="#s432" x="14026"/><use href="#s437" x="14546"/><use href="#s430" x="14965"/><use href="#s425" x="15512"/><use href="#s438" x="16081"/><use href="#s437" x="16676"/><use href="#s439" x="17095"/><use href="#s440" x="17972"/></g><g transform="translate(72,281) scale(0.021000)" fill="#9A9A9A"><use href="#s427" x="0"/><use href="#s425" x="551"/><use href="#s441" x="1120"/><use href="#s424" x="1699"/><use href="#s425" x="1949"/><use href="#s427" x="2518"/><use href="#s442" x="3079"/><use href="#s430" x="3626"/><use href="#s423" x="4427"/><use href="#s425" x="4990"/><use href="#s427" x="5559"/><use href="#s437" x="6120"/><use href="#s432" x="6539"/><use href="#s427" x="7049"/><use href="#s431" x="7600"/><use href="#s423" x="8136"/><use href="#s425" x="8699"/><use href="#s438" x="9268"/><use href="#s431" x="10113"/><use href="#s430" x="10663"/><use href="#s443" x="11204"/><use href="#s431" x="11465"/><use href="#s444" x="12001"/><use href="#s443" x="12576"/><use href="#s430" x="12843"/><use href="#s426" x="13344"/><use href="#s423" x="13720"/><use href="#s428" x="14283"/><use href="#s445" x="14602"/><use href="#s430" x="15053"/><use href="#s425" x="15600"/><use href="#s438" x="16169"/><use href="#s430" x="17014"/></g><g transform="translate(72,312) scale(0.021000)" fill="#9A9A9A"><use href="#s431" x="0"/><use href="#s423" x="536"/><use href="#s425" x="1099"/><use href="#s432" x="1668"/><use href="#s423" x="2178"/><use href="#s443" x="2746"/><use href="#s427" x="3007"/><use href="#s429" x="3818"/><use href="#s423" x="4169"/><use href="#s428" x="4732"/><use href="#s430" x="5361"/><use href="#s425" x="5908"/><use href="#s430" x="6479"/><use href="#s443" x="7020"/><use href="#s436" x="7263"/><use href="#s432" x="7774"/><use href="#s424" x="8284"/><use href="#s432" x="8518"/><use href="#s446" x="9038"/></g><g transform="translate(592,118) scale(0.014000)" fill="#6F6F6F"><use href="#m547" x="0"/><use href="#m548" x="740"/><use href="#m547" x="1480"/><use href="#m549" x="2220"/><use href="#m550" x="2960"/><use href="#m551" x="3700"/><use href="#m552" x="5180"/><use href="#m553" x="5920"/><use href="#m554" x="6660"/><use href="#m555" x="7400"/></g><path d="M592 140H1208" stroke="#2C2C2C" stroke-width="1"/><g class="fl f0"><g transform="translate(592,178) scale(0.017000)" fill="#F5F5F5"><use href="#m610" x="0"/><use href="#m656" x="680"/><use href="#m65" x="1360"/><use href="#m656" x="2040"/></g></g><path d="M652.24 172h9 m-3.5 -3.5 3.5 3.5 -3.5 3.5" stroke="#6F6F6F" stroke-width="1.4" fill="none"/><g class="fl f1"><g transform="translate(675.24,178) scale(0.017000)" fill="#F5F5F5"><use href="#m657" x="0"/><use href="#m658" x="680"/><use href="#m67" x="1360"/><use href="#m659" x="2040"/><use href="#m69" x="2720"/><use href="#m60" x="3400"/><use href="#m659" x="4080"/></g></g><path d="M770.16 172h9 m-3.5 -3.5 3.5 3.5 -3.5 3.5" stroke="#6F6F6F" stroke-width="1.4" fill="none"/><g class="fl f2"><g transform="translate(793.16,178) scale(0.017000)" fill="#F5F5F5"><use href="#m660" x="0"/><use href="#m661" x="680"/><use href="#m610" x="1360"/><use href="#m63" x="2040"/><use href="#m66" x="2720"/></g></g><path d="M864.96 172h9 m-3.5 -3.5 3.5 3.5 -3.5 3.5" stroke="#6F6F6F" stroke-width="1.4" fill="none"/><g class="fl f3"><g transform="translate(887.96,178) scale(0.017000)" fill="#F5F5F5"><use href="#m69" x="0"/><use href="#m64" x="680"/><use href="#m65" x="1360"/><use href="#m63" x="2040"/><use href="#m62" x="2720"/><use href="#m662" x="3400"/><use href="#m656" x="4080"/><use href="#m66" x="4760"/><use href="#m659" x="5440"/></g></g><path d="M1006 172h9 m-3.5 -3.5 3.5 3.5 -3.5 3.5" stroke="#6F6F6F" stroke-width="1.4" fill="none"/><g class="fl f4"><g transform="translate(1029,178) scale(0.017000)" fill="#F5F5F5"><use href="#m610" x="0"/><use href="#m63" x="680"/><use href="#m60" x="1360"/><use href="#m69" x="2040"/><use href="#m659" x="2720"/><use href="#m69" x="3400"/><use href="#m661" x="4080"/><use href="#m64" x="4760"/></g></g><path d="M592 206H1208" stroke="#2C2C2C" stroke-width="1"/><g transform="translate(592,244) scale(0.014000)" fill="#6F6F6F"><use href="#m659" x="0"/><use href="#m65" x="740"/><use href="#m656" x="1480"/><use href="#m60" x="2220"/><use href="#m663" x="2960"/></g><g transform="translate(692,244) scale(0.020000)" fill="#9A9A9A"><use href="#s464" x="0"/><use href="#s430" x="570"/><use href="#s432" x="1115"/><use href="#s426" x="1605"/><use href="#s465" x="2007"/><use href="#s466" x="2655"/><use href="#s467" x="3285"/><use href="#s468" x="3805"/><use href="#s432" x="4256"/><use href="#s431" x="4766"/><use href="#s424" x="5302"/><use href="#s469" x="5526"/><use href="#s424" x="6066"/><use href="#s426" x="6270"/><use href="#s437" x="6632"/><use href="#s443" x="7051"/><use href="#s427" x="7312"/><use href="#s430" x="7877"/><use href="#s428" x="8424"/><use href="#s425" x="8763"/><use href="#s468" x="9594"/><use href="#s470" x="10045"/><use href="#s427" x="10778"/><use href="#s471" x="11289"/><use href="#s426" x="11821"/><use href="#s446" x="12238"/><use href="#s472" x="12449"/><use href="#s432" x="12699"/></g><g transform="translate(592,274) scale(0.014000)" fill="#6F6F6F"><use href="#m660" x="0"/><use href="#m661" x="740"/><use href="#m610" x="1480"/><use href="#m63" x="2220"/><use href="#m66" x="2960"/></g><g transform="translate(692,274) scale(0.020000)" fill="#9A9A9A"><use href="#s473" x="0"/><use href="#s474" x="566"/><use href="#s475" x="1266"/><use href="#s423" x="1944"/><use href="#s423" x="2507"/><use href="#s432" x="3070"/><use href="#s426" x="3560"/><use href="#s468" x="4202"/><use href="#s435" x="4653"/><use href="#s423" x="5222"/><use href="#s443" x="5790"/><use href="#s438" x="6051"/><use href="#s437" x="6646"/><use href="#s423" x="7065"/><use href="#s444" x="7628"/><use href="#s426" x="8175"/><use href="#s476" x="8817"/><use href="#s477" x="9489"/><use href="#s478" x="10087"/><use href="#s446" x="10750"/><use href="#s479" x="10951"/><use href="#s480" x="11555"/><use href="#s481" x="12161"/></g><g transform="translate(592,304) scale(0.014000)" fill="#6F6F6F"><use href="#m682" x="0"/><use href="#m661" x="740"/><use href="#m60" x="1480"/><use href="#m61" x="2220"/><use href="#m659" x="2960"/></g><g transform="translate(692,304) scale(0.020000)" fill="#9A9A9A"><use href="#s483" x="0"/><use href="#s430" x="699"/><use href="#s443" x="1240"/><use href="#s424" x="1499"/><use href="#s484" x="1723"/><use href="#s428" x="2308"/><use href="#s430" x="2647"/><use href="#s426" x="3148"/><use href="#s427" x="3524"/><use href="#s438" x="4075"/><use href="#s424" x="4920"/><use href="#s425" x="5170"/><use href="#s426" x="5711"/><use href="#s427" x="6087"/><use href="#s428" x="6638"/><use href="#s433" x="6992"/><use href="#s430" x="7506"/><use href="#s443" x="8047"/><use href="#s432" x="8308"/><use href="#s445" x="8828"/><use href="#s425" x="9279"/><use href="#s423" x="9848"/><use href="#s443" x="10671"/><use href="#s427" x="10932"/><use href="#s430" x="11497"/><use href="#s469" x="12040"/><use href="#s430" x="12586"/><use href="#s441" x="13131"/><use href="#s427" x="13715"/></g></svg>