<svg xmlns="http://www.w3.org/2000/svg" width="1280" height="274" viewBox="0 0 1280 274" fill="none" stroke-linecap="round" stroke-linejoin="round" role="img" aria-labelledby="t d"><title id="t">Not Yet: spectra · synchro · aether</title><desc id="d">Named, not built, and not yet printed as plates. each holds a question instead of a description.</desc><defs><path id="g0" d="M0 0L0 -100M0 -100L30 -100A30 28 0 0 1 60 -72A30 28 0 0 1 30 -44L0 -44"/><path id="g1" d="M0 -100L0 0L54 0"/><path id="g2" d="M6 0L6 -9"/><path id="g3" d="M0 -100L40 0L80 -100"/><path id="g4" d="M0 0L0 -100L70 0L70 -100"/><path id="g5" d="M46 -100A46 50 0 0 0 6.2 -25A46 50 0 0 0 85.8 -25A46 50 0 0 0 46 -100"/><path id="g6" d="M0 -100L80 -100M40 -100L40 0"/><path id="g7" d="M0 -100L36 -50L72 -100M36 -50L36 0"/><path id="g8" d="M58 -100L0 -100L0 0L58 0M0 -50L48 -50"/><path id="g9" d="M57.2 -85.6A30 25 0 0 0 21.4 -98.9A30 25 0 0 0 0.3 -71.4A30 25 0 0 0 30 -50A30 25 0 0 1 59.7 -28.6A30 25 0 0 1 38.6 -1.1A30 25 0 0 1 2.8 -14.4"/><path id="g10" d="M81.2 -82.1A46 50 0 0 0 14.4 -86.4A46 50 0 0 0 14.4 -13.6A46 50 0 0 0 81.2 -17.9"/><path id="g11" d="M0 0L0 -100M0 -100L36 -100A30 25 0 0 1 66 -75A30 25 0 0 1 36 -50L0 -50M30 -50L72 0"/><path id="g12" d="M0 0L42 -100L84 0M13.4 -32L70.6 -32"/><path id="g13" d="M6 -50L6 -58"/><path id="g14" d="M0 0L0 -100M72 0L72 -100M0 -50L72 -50"/><path id="g15" d="M0 0L0 -100M64 -100L0 -40M18 -58L68 0"/><path id="g16" d="M0 0L0 -100L38 -100A44 50 0 0 1 82 -50A44 50 0 0 1 38 0L0 0"/><path id="g17" d="M0 0L0 -100L40 -36L80 -100L80 0"/><path id="g18" d="M8 -9L4 8"/><path id="g19" d="M0 0L0 -100M0 -100L30 -100A28 25 0 0 1 58 -75A28 25 0 0 1 30 -50L0 -50M0 -50L34 -50A28 25 0 0 1 62 -25A28 25 0 0 1 34 0L0 0"/><path id="g20" d="M0 -100L0 -42A36 42 0 0 0 36 0A36 42 0 0 0 72 -42L72 -100"/><path id="g21" d="M20 0L20 -100M0 -100L40 -100M0 0L40 0"/><path id="g22" d="M46 -100A46 50 0 0 0 6.2 -25A46 50 0 0 0 85.8 -25A46 50 0 0 0 46 -100M56 -22L90 10"/><path id="g23" d="M58 -100L0 -100L0 0M0 -55L48 -55"/><path id="g24" d="M0 -100L22 0L50 -62L78 0L100 -100"/><path id="g25" d="M0.4 -78.5A25 26 0 0 1 41.1 -93.9A25 26 0 0 1 33.6 -49.6L25 -44L25 -30M25 0L25 -9"/><path id="g26" d="M81.2 -82.1A46 50 0 0 0 7.6 -77.5A46 50 0 0 0 32.8 -2.1A46 50 0 0 0 92 -50L50 -50"/></defs><path d="M72 8H1208" stroke="#373431" stroke-width="1"/><g transform="translate(72 40) scale(0.1)" stroke="#7A766E" stroke-width="10.5"><use href="#g0" x="0"/><use href="#g1" x="92"/><use href="#g2" x="178"/><use href="#g3" x="304"/></g><g transform="translate(72 72) scale(0.21)" stroke="#E9E2D3" stroke-width="9.524"><use href="#g4" x="0"/><use href="#g5" x="102"/><use href="#g6" x="226"/><use href="#g7" x="420"/><use href="#g8" x="524"/><use href="#g6" x="614"/></g><g transform="translate(72 100) scale(0.11)" stroke="#ABA59A" stroke-width="10"><use href="#g9" x="0"/><use href="#g0" x="92"/><use href="#g8" x="184"/><use href="#g10" x="274"/><use href="#g6" x="388"/><use href="#g11" x="500"/><use href="#g12" x="604"/><use href="#g13" x="802"/><use href="#g9" x="928"/><use href="#g7" x="1020"/><use href="#g4" x="1124"/><use href="#g10" x="1226"/><use href="#g14" x="1340"/><use href="#g11" x="1444"/><use href="#g5" x="1548"/><use href="#g13" x="1754"/><use href="#g12" x="1880"/><use href="#g8" x="1996"/><use href="#g6" x="2086"/><use href="#g14" x="2198"/><use href="#g8" x="2302"/><use href="#g11" x="2392"/></g><g transform="translate(72 125) scale(0.1)" stroke="#7A766E" stroke-width="10.5"><use href="#g9" x="0"/><use href="#g15" x="92"/><use href="#g8" x="192"/><use href="#g6" x="282"/><use href="#g10" x="394"/><use href="#g14" x="508"/><use href="#g8" x="612"/><use href="#g16" x="702"/></g><g transform="translate(432 72) scale(0.15)" stroke="#ABA59A" stroke-width="9.667"><use href="#g4" x="0"/><use href="#g12" x="102"/><use href="#g17" x="218"/><use href="#g8" x="330"/><use href="#g16" x="420"/><use href="#g18" x="534"/><use href="#g4" x="660"/><use href="#g5" x="762"/><use href="#g6" x="886"/><use href="#g19" x="1080"/><use href="#g20" x="1174"/><use href="#g21" x="1278"/><use href="#g1" x="1350"/><use href="#g6" x="1436"/><use href="#g18" x="1548"/><use href="#g12" x="1674"/><use href="#g4" x="1790"/><use href="#g16" x="1892"/><use href="#g4" x="2088"/><use href="#g5" x="2190"/><use href="#g6" x="2314"/><use href="#g7" x="2508"/><use href="#g8" x="2612"/><use href="#g6" x="2702"/><use href="#g0" x="2896"/><use href="#g11" x="2988"/><use href="#g21" x="3092"/><use href="#g4" x="3164"/><use href="#g6" x="3266"/><use href="#g8" x="3378"/><use href="#g16" x="3468"/><use href="#g12" x="3664"/><use href="#g9" x="3780"/><use href="#g0" x="3954"/><use href="#g1" x="4046"/><use href="#g12" x="4132"/><use href="#g6" x="4248"/><use href="#g8" x="4360"/><use href="#g9" x="4450"/><use href="#g2" x="4542"/><use href="#g8" x="4668"/><use href="#g12" x="4758"/><use href="#g10" x="4874"/><use href="#g14" x="4988"/></g><g transform="translate(432 99) scale(0.15)" stroke="#ABA59A" stroke-width="9.667"><use href="#g14" x="0"/><use href="#g5" x="104"/><use href="#g1" x="228"/><use href="#g16" x="314"/><use href="#g9" x="428"/><use href="#g12" x="602"/><use href="#g22" x="800"/><use href="#g20" x="924"/><use href="#g8" x="1028"/><use href="#g9" x="1118"/><use href="#g6" x="1210"/><use href="#g21" x="1322"/><use href="#g5" x="1394"/><use href="#g4" x="1518"/><use href="#g21" x="1702"/><use href="#g4" x="1774"/><use href="#g9" x="1876"/><use href="#g6" x="1968"/><use href="#g8" x="2080"/><use href="#g12" x="2170"/><use href="#g16" x="2286"/><use href="#g5" x="2482"/><use href="#g23" x="2606"/><use href="#g12" x="2778"/><use href="#g16" x="2976"/><use href="#g8" x="3090"/><use href="#g9" x="3180"/><use href="#g10" x="3272"/><use href="#g11" x="3386"/><use href="#g21" x="3490"/><use href="#g0" x="3562"/><use href="#g6" x="3654"/><use href="#g21" x="3766"/><use href="#g5" x="3838"/><use href="#g4" x="3962"/><use href="#g2" x="4064"/></g><g transform="translate(432 140) scale(0.09)" stroke="#7A766E" stroke-width="11.67"><use href="#g9" x="0"/><use href="#g0" x="92"/><use href="#g8" x="184"/><use href="#g10" x="274"/><use href="#g6" x="388"/><use href="#g11" x="500"/><use href="#g12" x="604"/></g><g transform="translate(582 140) scale(0.11)" stroke="#ABA59A" stroke-width="10"><use href="#g24" x="0"/><use href="#g14" x="132"/><use href="#g12" x="236"/><use href="#g6" x="352"/><use href="#g16" x="546"/><use href="#g5" x="660"/><use href="#g8" x="784"/><use href="#g9" x="874"/><use href="#g12" x="1048"/><use href="#g17" x="1246"/><use href="#g12" x="1358"/><use href="#g10" x="1474"/><use href="#g14" x="1588"/><use href="#g21" x="1692"/><use href="#g4" x="1764"/><use href="#g8" x="1866"/><use href="#g4" x="2038"/><use href="#g5" x="2140"/><use href="#g6" x="2264"/><use href="#g21" x="2376"/><use href="#g10" x="2448"/><use href="#g8" x="2562"/><use href="#g18" x="2652"/><use href="#g17" x="2778"/><use href="#g21" x="2890"/><use href="#g9" x="2962"/><use href="#g9" x="3054"/><use href="#g5" x="3228"/><use href="#g11" x="3352"/><use href="#g17" x="3538"/><use href="#g21" x="3650"/><use href="#g9" x="3722"/><use href="#g6" x="3814"/><use href="#g12" x="3926"/><use href="#g15" x="4042"/><use href="#g8" x="4142"/><use href="#g24" x="4314"/><use href="#g14" x="4446"/><use href="#g8" x="4550"/><use href="#g4" x="4640"/><use href="#g21" x="4824"/><use href="#g6" x="4896"/><use href="#g1" x="5090"/><use href="#g5" x="5176"/><use href="#g5" x="5300"/><use href="#g15" x="5424"/><use href="#g9" x="5524"/><use href="#g25" x="5616"/></g><g transform="translate(432 166) scale(0.09)" stroke="#7A766E" stroke-width="11.67"><use href="#g9" x="0"/><use href="#g7" x="92"/><use href="#g4" x="196"/><use href="#g10" x="298"/><use href="#g14" x="412"/><use href="#g11" x="516"/><use href="#g5" x="620"/></g><g transform="translate(582 166) scale(0.11)" stroke="#ABA59A" stroke-width="10"><use href="#g24" x="0"/><use href="#g14" x="132"/><use href="#g12" x="236"/><use href="#g6" x="352"/><use href="#g16" x="546"/><use href="#g5" x="660"/><use href="#g9" x="866"/><use href="#g6" x="958"/><use href="#g12" x="1070"/><use href="#g6" x="1186"/><use href="#g8" x="1298"/><use href="#g18" x="1388"/><use href="#g1" x="1514"/><use href="#g12" x="1600"/><use href="#g6" x="1716"/><use href="#g8" x="1828"/><use href="#g4" x="1918"/><use href="#g10" x="2020"/><use href="#g7" x="2134"/><use href="#g12" x="2320"/><use href="#g4" x="2436"/><use href="#g16" x="2538"/><use href="#g10" x="2734"/><use href="#g5" x="2848"/><use href="#g5" x="2972"/><use href="#g11" x="3096"/><use href="#g16" x="3200"/><use href="#g21" x="3314"/><use href="#g4" x="3386"/><use href="#g12" x="3488"/><use href="#g6" x="3604"/><use href="#g21" x="3716"/><use href="#g5" x="3788"/><use href="#g4" x="3912"/><use href="#g23" x="4096"/><use href="#g8" x="4186"/><use href="#g8" x="4276"/><use href="#g1" x="4366"/><use href="#g1" x="4534"/><use href="#g21" x="4620"/><use href="#g15" x="4692"/><use href="#g8" x="4792"/><use href="#g24" x="4964"/><use href="#g14" x="5096"/><use href="#g8" x="5200"/><use href="#g4" x="5290"/></g><g transform="translate(582 186) scale(0.11)" stroke="#ABA59A" stroke-width="10"><use href="#g9" x="0"/><use href="#g7" x="92"/><use href="#g9" x="196"/><use href="#g6" x="288"/><use href="#g8" x="400"/><use href="#g17" x="490"/><use href="#g9" x="602"/><use href="#g17" x="776"/><use href="#g5" x="888"/><use href="#g3" x="1012"/><use href="#g8" x="1124"/><use href="#g6" x="1296"/><use href="#g5" x="1408"/><use href="#g26" x="1532"/><use href="#g8" x="1656"/><use href="#g6" x="1746"/><use href="#g14" x="1858"/><use href="#g8" x="1962"/><use href="#g11" x="2052"/><use href="#g25" x="2156"/></g><g transform="translate(432 212) scale(0.09)" stroke="#7A766E" stroke-width="11.67"><use href="#g12" x="0"/><use href="#g8" x="116"/><use href="#g6" x="206"/><use href="#g14" x="318"/><use href="#g8" x="422"/><use href="#g11" x="512"/></g><g transform="translate(582 212) scale(0.11)" stroke="#ABA59A" stroke-width="10"><use href="#g24" x="0"/><use href="#g14" x="132"/><use href="#g12" x="236"/><use href="#g6" x="352"/><use href="#g14" x="546"/><use href="#g12" x="650"/><use href="#g0" x="766"/><use href="#g0" x="858"/><use href="#g8" x="950"/><use href="#g4" x="1040"/><use href="#g9" x="1142"/><use href="#g24" x="1316"/><use href="#g14" x="1448"/><use href="#g8" x="1552"/><use href="#g4" x="1642"/><use href="#g24" x="1826"/><use href="#g8" x="1958"/><use href="#g19" x="2048"/><use href="#g26" x="2142"/><use href="#g1" x="2266"/><use href="#g18" x="2352"/><use href="#g26" x="2478"/><use href="#g8" x="2602"/><use href="#g4" x="2692"/><use href="#g8" x="2794"/><use href="#g11" x="2884"/><use href="#g12" x="2988"/><use href="#g6" x="3104"/><use href="#g21" x="3216"/><use href="#g3" x="3288"/><use href="#g8" x="3400"/><use href="#g9" x="3572"/><use href="#g7" x="3664"/><use href="#g9" x="3768"/><use href="#g6" x="3860"/><use href="#g8" x="3972"/><use href="#g17" x="4062"/><use href="#g9" x="4174"/><use href="#g12" x="4348"/><use href="#g4" x="4464"/><use href="#g16" x="4566"/><use href="#g9" x="4762"/><use href="#g0" x="4854"/><use href="#g12" x="4946"/><use href="#g6" x="5062"/><use href="#g21" x="5174"/><use href="#g12" x="5246"/><use href="#g1" x="5362"/></g><g transform="translate(582 232) scale(0.11)" stroke="#ABA59A" stroke-width="10"><use href="#g21" x="0"/><use href="#g4" x="72"/><use href="#g6" x="174"/><use href="#g8" x="286"/><use href="#g11" x="376"/><use href="#g23" x="480"/><use href="#g12" x="570"/><use href="#g10" x="686"/><use href="#g8" x="800"/><use href="#g9" x="890"/><use href="#g19" x="1064"/><use href="#g8" x="1158"/><use href="#g10" x="1248"/><use href="#g5" x="1362"/><use href="#g17" x="1486"/><use href="#g8" x="1598"/><use href="#g12" x="1770"/><use href="#g4" x="1886"/><use href="#g12" x="2070"/><use href="#g6" x="2186"/><use href="#g17" x="2298"/><use href="#g5" x="2410"/><use href="#g9" x="2534"/><use href="#g0" x="2626"/><use href="#g14" x="2718"/><use href="#g8" x="2822"/><use href="#g11" x="2912"/><use href="#g8" x="3016"/><use href="#g25" x="3106"/></g></svg>